<svg width="172" height="148" viewBox="0 0 172 148" fill="none" xmlns="http://www.w3.org/2000/svg">
<g filter="url(#filter0_d_324_3215)">
<path d="M86 0C40.7155 0 4 31.3425 4 70C4 108.658 40.7155 140 86 140C131.285 140 168 108.658 168 70C168 31.3425 131.285 0 86 0ZM51.5737 44.8C56.726 44.8 60.7098 48.0025 61.1745 51.8C61.646 55.2008 60.006 58.1992 55.5575 60.0017C53.2137 60.9992 52.2775 61.005 51.806 60.4042C51.5737 60.0017 51.806 59.605 52.2775 59.2025C56.4937 56.2042 56.4937 53.8008 56.0222 50.4058C55.7898 48.2008 53.9175 46.8008 52.0383 46.8008C43.8383 46.8008 32.126 62.3992 33.766 73.8033C34.4698 78.2017 37.5175 83.405 44.0775 83.405C46.1822 83.405 48.5192 82.8042 50.6375 82.005C54.0542 80.465 56.0973 79.2633 58.1337 77.3383C57.6348 72.1758 62.9443 65.4033 70.7822 65.4033C74.3013 65.4033 77.1098 66.5992 77.3422 68.8042C77.8068 71.8025 74.766 72.1992 73.8298 72.1992C72.8937 72.1992 71.2468 72.0008 71.2468 71.2075C71.0145 70.4025 73.3583 70.7992 73.126 69.0025C72.8868 67.8008 71.486 67.4042 70.0783 67.4042C65.1583 67.4042 62.3498 73.2025 63.0468 76.8017C63.286 78.4058 64.2222 80.0042 66.1013 80.0042C67.5022 80.0042 69.6137 78.1958 70.3175 75.6C70.7822 73.8033 72.6613 72.6017 74.3013 72.6017C74.9983 72.6017 75.463 72.8 75.7022 73.5992V74.4042C75.4698 75.2033 74.766 77.6008 75.0052 78.2017C75.0052 78.6042 75.2375 79.1992 76.1668 79.1992C76.7955 79.1992 79.1462 78.1492 81.4763 76.5217C82.2758 73.08 83.2052 68.95 83.2052 68.6058C83.4375 67.2058 84.1413 65.8058 87.4213 65.8058C88.1252 65.8058 88.5898 66.0042 88.8222 66.8033V67.6083L87.8928 71.2075C90.9337 67.8067 95.389 65.4092 98.1975 65.4092C99.3728 65.4092 100.309 66.0042 100.309 67.0075C100.309 67.6083 100.309 68.6058 99.8375 69.6092C98.9013 71.8083 97.726 75.2092 97.0222 78.2075C97.0222 79.0067 97.2613 79.8058 98.4367 79.8058C99.6052 79.8058 103.118 78.6042 105.926 75.4075L105.974 75.3842C105.96 74.9875 105.926 74.6025 105.926 74.2058C105.926 71.8083 106.165 69.8075 106.637 68.4075C107.101 66.8092 109.445 65.4092 110.853 65.4092C111.557 65.4092 112.254 65.8117 112.254 66.4067C112.254 66.6108 112.254 67.0075 112.021 67.2058C111.085 69.8075 110.381 72.205 110.381 74.6083C110.381 76.0083 110.614 78.0033 111.078 79.205C111.078 79.4033 111.318 79.6075 111.557 79.6075C112.021 79.6075 115.301 77.0117 117.638 73.6108C115.534 72.4092 114.358 70.4083 114.358 68.0108C114.358 63.8108 117.406 61.6117 120.221 61.6117C122.565 61.6117 124.438 63.0117 124.438 65.8117C124.438 67.6083 123.734 69.6033 122.565 71.4117H123.262C124.005 71.4323 124.745 71.3182 125.433 71.0769C126.121 70.8356 126.741 70.4725 127.253 70.0117C127.468 69.7087 127.788 69.4702 128.168 69.3292C130.458 66.85 133.84 65.0125 137.803 65.0125C141.083 65.0125 144.118 66.2083 144.357 68.4075C144.821 71.4117 141.774 72.0125 140.838 72.0125L140.824 72.0008C139.881 72.0008 138.248 71.7967 138.248 70.9975C138.248 70.1983 140.359 70.6008 140.12 68.8042C139.888 67.6025 138.48 67.2 137.072 67.2C132.385 67.2 129.351 72.3975 130.048 76.5975C130.28 78.2017 131.216 79.9983 133.089 79.9983C134.496 79.9983 136.608 78.2017 137.544 75.6C138.008 74.0017 139.888 72.6017 141.528 72.6017C142.231 72.6017 142.689 72.8 142.928 73.5992C142.928 74.0017 142.929 74.8008 141.992 77.4025C140.831 79.1992 140.824 80.2025 141.056 81.0017C141.288 82.6 142.225 83.8017 143.168 84.4025C143.4 84.6008 143.632 84.9975 143.632 84.9975C143.632 85.4 143.4 85.8025 142.696 85.8025C142.464 85.8025 142.232 85.8025 141.992 85.5983C138.48 84.4025 137.072 82.4017 136.601 80.4008C135.2 81.8008 133.56 82.6 131.681 82.6C128.64 82.6 125.599 80.2025 125.121 77.1983C124.987 75.9198 125.161 74.6312 125.633 73.4125C124.246 74.1708 122.75 74.5967 121.376 74.5967H120.215C117.16 78.4 113.88 81.0017 111.536 82.1975C110.74 82.5592 109.861 82.7663 108.96 82.8042C108.495 82.8042 107.792 82.6 107.559 82.1975C106.91 81.3108 106.493 79.9108 106.24 78.3067C102.954 81.3808 98.4162 83.0025 96.3115 83.0025C93.9677 83.0025 92.5668 81.8008 92.3345 79.7942V77.6008C93.0315 73.2025 94.9107 70.6008 94.9107 69.8017C94.9042 69.6961 94.8527 69.5963 94.7658 69.521C94.6789 69.4458 94.5627 69.4003 94.4392 69.3933C92.7992 69.3933 87.4145 74.2 86.4715 77.4025L85.7677 79.9983C85.303 81.8008 83.1915 83.0025 81.7907 83.0025C81.0868 83.0025 80.6153 82.7983 80.383 81.9992V81.2L80.6973 79.8408C77.7248 81.6492 74.7523 82.8042 73.3515 82.8042C71.2468 82.8042 70.0715 81.8008 69.8392 80.4008C68.4315 81.9992 66.7983 82.8042 64.6868 82.8042C62.2815 82.8042 59.9308 81.4042 58.7965 79.345C57.1292 80.9492 55.2227 82.5708 52.9745 83.8017C49.6945 85.6042 45.9498 87.0042 41.4945 87.0042C37.5175 87.0042 33.9983 85.2017 32.126 83.6033C29.3107 81.4042 27.6775 78.0033 27.4383 74.8008C26.0375 65.0008 33.0622 52.4008 43.8383 46.8008C46.4213 45.605 48.9975 44.8 51.5737 44.8ZM118.335 63.9975C117.625 63.9975 117.16 65.0008 117.16 65.9983C117.16 67.5967 118.096 69.3992 119.271 70.4025C119.73 69.3112 119.965 68.1609 119.969 67.0017C119.969 65.0008 119.039 63.9975 118.335 63.9975Z" fill="black"/>
</g>
<defs>
<filter id="filter0_d_324_3215" x="0" y="0" width="172" height="148" filterUnits="userSpaceOnUse" color-interpolation-filters="sRGB">
<feFlood flood-opacity="0" result="BackgroundImageFix"/>
<feColorMatrix in="SourceAlpha" type="matrix" values="0 0 0 0 0 0 0 0 0 0 0 0 0 0 0 0 0 0 127 0" result="hardAlpha"/>
<feOffset dy="4"/>
<feGaussianBlur stdDeviation="2"/>
<feComposite in2="hardAlpha" operator="out"/>
<feColorMatrix type="matrix" values="0 0 0 0 0 0 0 0 0 0 0 0 0 0 0 0 0 0 0.25 0"/>
<feBlend mode="normal" in2="BackgroundImageFix" result="effect1_dropShadow_324_3215"/>
<feBlend mode="normal" in="SourceGraphic" in2="effect1_dropShadow_324_3215" result="shape"/>
</filter>
</defs>
</svg>
