<svg width="164" height="140" viewBox="0 0 164 140" fill="none" xmlns="http://www.w3.org/2000/svg">
<path d="M82 70C82 63.8116 85.4241 57.8767 91.519 53.5008C97.614 49.125 105.88 46.6667 114.5 46.6667C123.12 46.6667 131.386 49.125 137.481 53.5008C143.576 57.8767 147 63.8116 147 70C147 76.1884 143.576 82.1233 137.481 86.4992C131.386 90.875 123.12 93.3333 114.5 93.3333C105.88 93.3333 97.614 90.875 91.519 86.4992C85.4241 82.1233 82 76.1884 82 70ZM17 116.667C17 110.478 20.4241 104.543 26.519 100.168C32.614 95.7917 40.8805 93.3333 49.5 93.3333H82V116.667C82 122.855 78.5759 128.79 72.481 133.166C66.386 137.542 58.1195 140 49.5 140C40.8805 140 32.614 137.542 26.519 133.166C20.4241 128.79 17 122.855 17 116.667ZM82 0V46.6667H114.5C123.12 46.6667 131.386 44.2083 137.481 39.8325C143.576 35.4566 147 29.5217 147 23.3333C147 17.1449 143.576 11.21 137.481 6.83418C131.386 2.45833 123.12 0 114.5 0L82 0ZM17 23.3333C17 29.5217 20.4241 35.4566 26.519 39.8325C32.614 44.2083 40.8805 46.6667 49.5 46.6667H82V0H49.5C40.8805 0 32.614 2.45833 26.519 6.83418C20.4241 11.21 17 17.1449 17 23.3333ZM17 70C17 76.1884 20.4241 82.1233 26.519 86.4992C32.614 90.875 40.8805 93.3333 49.5 93.3333H82V46.6667H49.5C40.8805 46.6667 32.614 49.125 26.519 53.5008C20.4241 57.8767 17 63.8116 17 70Z" fill="white"/>
</svg>
