<svg width="73" height="72" viewBox="0 0 73 72" fill="none" xmlns="http://www.w3.org/2000/svg">
<path d="M36.5 0.00192842C27.0532 -0.0985486 17.9547 3.73095 11.2042 10.6488C4.45374 17.5667 0.603615 27.0068 0.5 36.8946C0.536401 44.7087 2.938 52.3097 7.35984 58.6059C11.7817 64.9021 17.9962 69.5694 25.1109 71.9374C26.9109 72.28 27.5655 71.1496 27.5655 70.1562C27.5655 69.1628 27.5655 66.9705 27.5655 63.8875C17.5509 66.1141 15.4236 58.9548 15.4236 58.9548C14.757 56.7073 13.3397 54.7861 11.4309 53.5425C8.15818 51.2817 11.6927 51.3159 11.6927 51.3159C12.8239 51.4742 13.9063 51.8985 14.8585 52.557C15.8107 53.2156 16.6081 54.0912 17.1909 55.1182C18.2065 56.9616 19.873 58.3139 21.8317 58.884C23.7903 59.4542 25.8846 59.1967 27.6636 58.1669C27.8466 56.2911 28.6582 54.5436 29.9545 53.2342C21.9691 52.3093 13.5909 49.1579 13.5909 35.0105C13.5195 31.3202 14.8222 27.7454 17.2236 25.0423C16.13 21.874 16.2591 18.3842 17.5836 15.3139C17.5836 15.3139 20.6273 14.3205 27.4018 19.082C33.2989 17.4372 39.5047 17.4372 45.4018 19.082C52.2745 14.3205 55.22 15.3139 55.22 15.3139C56.5445 18.3842 56.6737 21.874 55.58 25.0423C58.0372 27.6959 59.4106 31.2466 59.4091 34.942C59.4091 49.1236 50.9655 52.2408 43.0455 53.1657C43.9127 54.047 44.5826 55.1184 45.007 56.303C45.4314 57.4876 45.5998 58.7559 45.5 60.0167V70.1219C45.5 70.1219 46.1545 72.28 47.9545 71.9032C55.049 69.5204 61.2427 64.852 65.6508 58.5648C70.059 52.2775 72.4562 44.693 72.5 36.8946C72.3964 27.0068 68.5463 17.5667 61.7958 10.6488C55.0453 3.73095 45.9468 -0.0985486 36.5 0.00192842Z" fill="black"/>
</svg>
