<svg width="54" height="53" viewBox="0 0 54 53" fill="none" xmlns="http://www.w3.org/2000/svg">
<path d="M18.0268 1.41061C15.6268 2.07727 11.3601 5.0106 8.42676 7.94394C-6.77324 23.1439 1.62676 49.0106 23.0934 52.6106C39.6268 55.4106 55.8934 39.1439 53.0934 22.6106C51.7601 15.0106 45.6268 6.21061 39.6268 3.27727C33.4934 0.343937 24.1601 -0.456062 18.0268 1.41061ZM38.4268 18.2106C44.6934 22.3439 49.7601 26.0773 49.7601 26.6106C49.7601 27.1439 44.6934 30.8773 38.4268 35.1439L27.0934 42.6106L15.7601 35.0106C9.49343 30.8773 4.56009 27.0106 4.69343 26.3439C4.96009 25.5439 25.3601 11.0106 26.8268 10.7439C26.9601 10.6106 32.1601 13.9439 38.4268 18.2106Z" fill="white"/>
<path d="M23.0934 19.2772C20.1601 21.0106 20.0268 21.1439 22.4268 21.2772C23.8934 21.4106 27.4934 22.2106 30.4268 23.2772C36.6934 25.5439 37.2268 25.2772 34.1601 21.5439C30.8268 17.8106 27.0934 17.0106 23.0934 19.2772Z" fill="white"/>
<path d="M18.4268 28.2106C19.4934 31.944 23.8934 35.944 26.9601 35.944C29.6268 35.944 35.0934 32.344 35.0934 30.4773C35.0934 28.6106 26.5601 25.2773 21.7601 25.2773C18.0268 25.2773 17.6268 25.6773 18.4268 28.2106Z" fill="white"/>
</svg>
