<svg width="55" height="49" viewBox="0 0 55 49" fill="none" xmlns="http://www.w3.org/2000/svg">
<path d="M24.743 1.85954C24.743 2.79287 23.8096 3.19287 22.743 2.65954C18.2096 0.926203 7.00965 8.5262 8.47631 12.3929C9.00965 13.7262 8.60965 14.1262 7.14298 13.4595C5.80965 13.0595 4.60965 13.4595 4.20965 14.6595C3.80965 15.7262 4.07631 16.5262 4.74298 16.5262C5.54298 16.5262 6.07631 17.1929 6.07631 17.9929C6.07631 18.7929 5.14298 19.0595 3.94298 18.6595C2.20965 17.9929 1.94298 18.5262 2.60965 21.1929C3.14298 23.0595 2.87631 24.5262 2.07631 24.5262C1.40965 24.5262 0.742981 25.0595 0.742981 25.8595C0.742981 26.6595 10.4763 27.1929 27.4096 27.1929C53.143 27.1929 54.0763 27.0595 54.0763 24.5262C54.0763 21.9929 53.143 21.8595 40.743 21.8595C28.343 21.8595 27.4096 21.7262 27.4096 19.1929C27.4096 16.6595 28.343 16.5262 39.4096 16.5262C51.143 16.5262 51.4096 16.3929 50.0763 13.8595C48.8763 11.5929 47.2763 11.1929 38.0763 11.1929C28.343 11.1929 27.4096 10.9262 27.4096 8.5262C27.4096 6.1262 28.343 5.85954 35.143 5.85954C42.4763 5.7262 42.6096 5.7262 39.2763 3.85954C34.0763 1.05954 24.743 -0.273796 24.743 1.85954ZM16.743 7.19287C16.743 7.85954 16.2096 8.5262 15.4096 8.5262C14.743 8.5262 14.0763 7.85954 14.0763 7.19287C14.0763 6.39287 14.743 5.85954 15.4096 5.85954C16.2096 5.85954 16.743 6.39287 16.743 7.19287ZM22.0763 7.19287C22.0763 7.85954 21.543 8.5262 20.743 8.5262C20.0763 8.5262 19.4096 7.85954 19.4096 7.19287C19.4096 6.39287 20.0763 5.85954 20.743 5.85954C21.543 5.85954 22.0763 6.39287 22.0763 7.19287ZM14.0763 12.5262C14.0763 13.1929 13.543 13.8595 12.743 13.8595C12.0763 13.8595 11.4096 13.1929 11.4096 12.5262C11.4096 11.7262 12.0763 11.1929 12.743 11.1929C13.543 11.1929 14.0763 11.7262 14.0763 12.5262ZM19.4096 12.5262C19.4096 13.1929 18.8763 13.8595 18.0763 13.8595C17.4096 13.8595 16.743 13.1929 16.743 12.5262C16.743 11.7262 17.4096 11.1929 18.0763 11.1929C18.8763 11.1929 19.4096 11.7262 19.4096 12.5262ZM24.743 12.5262C24.743 13.1929 24.2096 13.8595 23.4096 13.8595C22.743 13.8595 22.0763 13.1929 22.0763 12.5262C22.0763 11.7262 22.743 11.1929 23.4096 11.1929C24.2096 11.1929 24.743 11.7262 24.743 12.5262ZM11.4096 17.8595C11.4096 18.5262 10.8763 19.1929 10.0763 19.1929C9.40965 19.1929 8.74298 18.5262 8.74298 17.8595C8.74298 17.0595 9.40965 16.5262 10.0763 16.5262C10.8763 16.5262 11.4096 17.0595 11.4096 17.8595ZM16.743 17.8595C16.743 18.5262 16.2096 19.1929 15.4096 19.1929C14.743 19.1929 14.0763 18.5262 14.0763 17.8595C14.0763 17.0595 14.743 16.5262 15.4096 16.5262C16.2096 16.5262 16.743 17.0595 16.743 17.8595ZM22.0763 17.8595C22.0763 18.5262 21.543 19.1929 20.743 19.1929C20.0763 19.1929 19.4096 18.5262 19.4096 17.8595C19.4096 17.0595 20.0763 16.5262 20.743 16.5262C21.543 16.5262 22.0763 17.0595 22.0763 17.8595ZM8.74298 23.1929C8.74298 23.8595 8.20965 24.5262 7.40965 24.5262C6.74298 24.5262 6.07631 23.8595 6.07631 23.1929C6.07631 22.3929 6.74298 21.8595 7.40965 21.8595C8.20965 21.8595 8.74298 22.3929 8.74298 23.1929ZM14.0763 23.1929C14.0763 23.8595 13.543 24.5262 12.743 24.5262C12.0763 24.5262 11.4096 23.8595 11.4096 23.1929C11.4096 22.3929 12.0763 21.8595 12.743 21.8595C13.543 21.8595 14.0763 22.3929 14.0763 23.1929ZM19.4096 23.1929C19.4096 23.8595 18.8763 24.5262 18.0763 24.5262C17.4096 24.5262 16.743 23.8595 16.743 23.1929C16.743 22.3929 17.4096 21.8595 18.0763 21.8595C18.8763 21.8595 19.4096 22.3929 19.4096 23.1929ZM24.743 23.1929C24.743 23.8595 24.2096 24.5262 23.4096 24.5262C22.743 24.5262 22.0763 23.8595 22.0763 23.1929C22.0763 22.3929 22.743 21.8595 23.4096 21.8595C24.2096 21.8595 24.743 22.3929 24.743 23.1929Z" fill="white"/>
<path d="M2.34299 34.7929C2.74299 36.9262 5.00965 37.1929 27.4097 37.1929C49.8097 37.1929 52.0763 36.9262 52.4763 34.7929C52.8763 32.6595 51.0097 32.5262 27.4097 32.5262C3.80965 32.5262 1.94299 32.6595 2.34299 34.7929Z" fill="white"/>
<path d="M7.40964 44.5262C7.40964 47.3262 13.4096 48.5262 28.4763 48.5262C42.6096 48.5262 44.6096 48.2596 46.743 45.8596C49.143 43.1929 49.0096 43.1929 28.343 43.1929C15.8096 43.1929 7.40964 43.7262 7.40964 44.5262Z" fill="white"/>
</svg>
