<svg width="54" height="49" viewBox="0 0 54 49" fill="none" xmlns="http://www.w3.org/2000/svg">
<path d="M24.4097 1.85954C24.4097 2.79287 23.4763 3.19287 22.4097 2.65954C17.8763 0.926203 6.67633 8.5262 8.143 12.3929C8.67634 13.7262 8.27634 14.1262 6.80967 13.4595C5.47634 13.0595 4.27633 13.4595 3.87633 14.6595C3.47633 15.7262 3.743 16.5262 4.40967 16.5262C5.20967 16.5262 5.743 17.1929 5.743 17.9929C5.743 18.7929 4.80967 19.0595 3.60967 18.6595C1.87633 17.9929 1.60967 18.5262 2.27633 21.1929C2.80967 23.0595 2.543 24.5262 1.743 24.5262C1.07633 24.5262 0.409668 25.0595 0.409668 25.8595C0.409668 26.6595 10.143 27.1929 27.0763 27.1929C52.8097 27.1929 53.743 27.0595 53.743 24.5262C53.743 21.9929 52.8097 21.8595 40.4097 21.8595C28.0097 21.8595 27.0763 21.7262 27.0763 19.1929C27.0763 16.6595 28.0097 16.5262 39.0763 16.5262C50.8097 16.5262 51.0763 16.3929 49.743 13.8595C48.543 11.5929 46.943 11.1929 37.743 11.1929C28.0097 11.1929 27.0763 10.9262 27.0763 8.5262C27.0763 6.1262 28.0097 5.85954 34.8097 5.85954C42.143 5.7262 42.2763 5.7262 38.943 3.85954C33.743 1.05954 24.4097 -0.273796 24.4097 1.85954ZM16.4097 7.19287C16.4097 7.85954 15.8763 8.5262 15.0763 8.5262C14.4097 8.5262 13.743 7.85954 13.743 7.19287C13.743 6.39287 14.4097 5.85954 15.0763 5.85954C15.8763 5.85954 16.4097 6.39287 16.4097 7.19287ZM21.743 7.19287C21.743 7.85954 21.2097 8.5262 20.4097 8.5262C19.743 8.5262 19.0763 7.85954 19.0763 7.19287C19.0763 6.39287 19.743 5.85954 20.4097 5.85954C21.2097 5.85954 21.743 6.39287 21.743 7.19287ZM13.743 12.5262C13.743 13.1929 13.2097 13.8595 12.4097 13.8595C11.743 13.8595 11.0763 13.1929 11.0763 12.5262C11.0763 11.7262 11.743 11.1929 12.4097 11.1929C13.2097 11.1929 13.743 11.7262 13.743 12.5262ZM19.0763 12.5262C19.0763 13.1929 18.543 13.8595 17.743 13.8595C17.0763 13.8595 16.4097 13.1929 16.4097 12.5262C16.4097 11.7262 17.0763 11.1929 17.743 11.1929C18.543 11.1929 19.0763 11.7262 19.0763 12.5262ZM24.4097 12.5262C24.4097 13.1929 23.8763 13.8595 23.0763 13.8595C22.4097 13.8595 21.743 13.1929 21.743 12.5262C21.743 11.7262 22.4097 11.1929 23.0763 11.1929C23.8763 11.1929 24.4097 11.7262 24.4097 12.5262ZM11.0763 17.8595C11.0763 18.5262 10.543 19.1929 9.743 19.1929C9.07633 19.1929 8.40967 18.5262 8.40967 17.8595C8.40967 17.0595 9.07633 16.5262 9.743 16.5262C10.543 16.5262 11.0763 17.0595 11.0763 17.8595ZM16.4097 17.8595C16.4097 18.5262 15.8763 19.1929 15.0763 19.1929C14.4097 19.1929 13.743 18.5262 13.743 17.8595C13.743 17.0595 14.4097 16.5262 15.0763 16.5262C15.8763 16.5262 16.4097 17.0595 16.4097 17.8595ZM21.743 17.8595C21.743 18.5262 21.2097 19.1929 20.4097 19.1929C19.743 19.1929 19.0763 18.5262 19.0763 17.8595C19.0763 17.0595 19.743 16.5262 20.4097 16.5262C21.2097 16.5262 21.743 17.0595 21.743 17.8595ZM8.40967 23.1929C8.40967 23.8595 7.87634 24.5262 7.07633 24.5262C6.40967 24.5262 5.743 23.8595 5.743 23.1929C5.743 22.3929 6.40967 21.8595 7.07633 21.8595C7.87634 21.8595 8.40967 22.3929 8.40967 23.1929ZM13.743 23.1929C13.743 23.8595 13.2097 24.5262 12.4097 24.5262C11.743 24.5262 11.0763 23.8595 11.0763 23.1929C11.0763 22.3929 11.743 21.8595 12.4097 21.8595C13.2097 21.8595 13.743 22.3929 13.743 23.1929ZM19.0763 23.1929C19.0763 23.8595 18.543 24.5262 17.743 24.5262C17.0763 24.5262 16.4097 23.8595 16.4097 23.1929C16.4097 22.3929 17.0763 21.8595 17.743 21.8595C18.543 21.8595 19.0763 22.3929 19.0763 23.1929ZM24.4097 23.1929C24.4097 23.8595 23.8763 24.5262 23.0763 24.5262C22.4097 24.5262 21.743 23.8595 21.743 23.1929C21.743 22.3929 22.4097 21.8595 23.0763 21.8595C23.8763 21.8595 24.4097 22.3929 24.4097 23.1929Z" fill="black"/>
<path d="M2.00967 34.7929C2.40967 36.9262 4.67634 37.1929 27.0763 37.1929C49.4763 37.1929 51.743 36.9262 52.143 34.7929C52.543 32.6595 50.6763 32.5262 27.0763 32.5262C3.47634 32.5262 1.60967 32.6595 2.00967 34.7929Z" fill="black"/>
<path d="M7.07634 44.5262C7.07634 47.3262 13.0763 48.5262 28.143 48.5262C42.2763 48.5262 44.2763 48.2596 46.4097 45.8596C48.8097 43.1929 48.6763 43.1929 28.0097 43.1929C15.4763 43.1929 7.07634 43.7262 7.07634 44.5262Z" fill="black"/>
</svg>
