<svg width="54" height="53" viewBox="0 0 54 53" fill="none" xmlns="http://www.w3.org/2000/svg">
<path d="M18.3052 1.41061C15.9052 2.07727 11.6385 5.0106 8.7052 7.94394C-6.4948 23.1439 1.9052 49.0106 23.3719 52.6106C39.9052 55.4106 56.1719 39.1439 53.3719 22.6106C52.0385 15.0106 45.9052 6.21061 39.9052 3.27727C33.7719 0.343937 24.4385 -0.456062 18.3052 1.41061ZM38.7052 18.2106C44.9719 22.3439 50.0385 26.0773 50.0385 26.6106C50.0385 27.1439 44.9719 30.8773 38.7052 35.1439L27.3719 42.6106L16.0385 35.0106C9.77187 30.8773 4.83854 27.0106 4.97187 26.3439C5.23854 25.5439 25.6385 11.0106 27.1052 10.7439C27.2385 10.6106 32.4385 13.9439 38.7052 18.2106Z" fill="black"/>
<path d="M23.3719 19.2772C20.4385 21.0106 20.3052 21.1439 22.7052 21.2772C24.1719 21.4106 27.7719 22.2106 30.7052 23.2772C36.9719 25.5439 37.5052 25.2772 34.4385 21.5439C31.1052 17.8106 27.3719 17.0106 23.3719 19.2772Z" fill="black"/>
<path d="M18.7052 28.2106C19.7719 31.944 24.1719 35.944 27.2385 35.944C29.9052 35.944 35.3719 32.344 35.3719 30.4773C35.3719 28.6106 26.8385 25.2773 22.0385 25.2773C18.3052 25.2773 17.9052 25.6773 18.7052 28.2106Z" fill="black"/>
</svg>
