<svg width="164" height="140" viewBox="0 0 164 140" fill="none" xmlns="http://www.w3.org/2000/svg">
<path d="M146.429 0H17.5714C7.87054 0 0 6.71875 0 15V125C0 133.281 7.87054 140 17.5714 140H146.429C156.129 140 164 133.281 164 125V15C164 6.71875 156.129 0 146.429 0ZM89.2482 109.187C89.2482 122.812 79.8768 129.031 66.2223 129.031C53.8857 129.031 46.7473 123.594 43.0866 117L55.6429 110.531C58.0589 114.188 60.2554 117.281 65.5634 117.281C70.6152 117.281 73.8366 115.594 73.8366 109V64.2812H89.2482V109.187ZM125.709 129.031C111.396 129.031 102.134 123.219 97.6313 115.594L110.188 109.406C113.482 114 117.802 117.406 125.379 117.406C131.749 117.406 135.849 114.687 135.849 110.906C135.849 106.406 131.676 104.812 124.611 102.156L120.767 100.75C109.638 96.7187 102.28 91.625 102.28 80.9062C102.28 71.0312 111.103 63.5313 124.83 63.5313C134.641 63.5313 141.67 66.4375 146.721 74.0625L134.714 80.625C132.079 76.5938 129.223 75 124.794 75C120.291 75 117.436 77.4375 117.436 80.625C117.436 84.5625 120.291 86.1563 126.917 88.625L130.761 90.0313C143.866 94.8125 151.224 99.7187 151.224 110.719C151.224 122.531 140.315 129.031 125.709 129.031Z" fill="black"/>
</svg>
