<svg width="73" height="72" viewBox="0 0 73 72" fill="none" xmlns="http://www.w3.org/2000/svg">
<path d="M36.5 0C16.6175 0 0.5 16.1175 0.5 36C0.5 55.8825 16.6175 72 36.5 72C56.3825 72 72.5 55.8825 72.5 36C72.5 16.1175 56.3825 0 36.5 0ZM27.6875 50.9212H20.3975V27.4612H27.6875V50.9212ZM23.9975 24.5812C21.695 24.5812 20.2062 22.95 20.2062 20.9325C20.2062 18.8737 21.74 17.2912 24.0912 17.2912C26.4425 17.2912 27.8825 18.8737 27.9275 20.9325C27.9275 22.95 26.4425 24.5812 23.9975 24.5812ZM54.3125 50.9212H47.0225V37.92C47.0225 34.8937 45.965 32.8387 43.3287 32.8387C41.315 32.8387 40.1188 34.23 39.59 35.5688C39.395 36.045 39.3462 36.72 39.3462 37.3913V50.9175H32.0525V34.9425C32.0525 32.0138 31.9587 29.565 31.8612 27.4575H38.195L38.5288 30.7162H38.675C39.635 29.1862 41.9862 26.9287 45.92 26.9287C50.7162 26.9287 54.3125 30.1425 54.3125 37.05V50.9212Z" fill="white"/>
</svg>
