<svg width="37" height="37" viewBox="0 0 37 37" fill="none" xmlns="http://www.w3.org/2000/svg">
<path id="Darkmode" d="M18.0214 36.6666C13.0214 36.6666 8.77142 34.9166 5.27142 31.4166C1.77142 27.9166 0.0214233 23.6666 0.0214233 18.6666C0.0214233 13.6666 1.77142 9.41663 5.27142 5.91663C8.77142 2.41663 13.0214 0.666626 18.0214 0.666626C18.2881 0.666626 18.5714 0.674959 18.8714 0.691626C19.1714 0.708293 19.5548 0.733293 20.0214 0.766626C18.8214 1.83329 17.8881 3.14996 17.2214 4.71663C16.5548 6.28329 16.2214 7.93329 16.2214 9.66663C16.2214 12.6666 17.2714 15.2166 19.3714 17.3166C21.4714 19.4166 24.0214 20.4666 27.0214 20.4666C28.7548 20.4666 30.4048 20.1583 31.9714 19.5416C33.5381 18.925 34.8548 18.0666 35.9214 16.9666C35.9548 17.3666 35.9798 17.6916 35.9964 17.9416C36.0131 18.1916 36.0214 18.4333 36.0214 18.6666C36.0214 23.6666 34.2714 27.9166 30.7714 31.4166C27.2714 34.9166 23.0214 36.6666 18.0214 36.6666ZM18.0214 33.6666C21.6548 33.6666 24.8214 32.5416 27.5214 30.2916C30.2214 28.0416 31.9048 25.4 32.5714 22.3666C31.7381 22.7333 30.8436 23.0083 29.8881 23.1916C28.9325 23.375 27.977 23.4666 27.0214 23.4666C23.1985 23.4666 19.9427 22.1224 17.2542 19.4339C14.5657 16.7453 13.2214 13.4896 13.2214 9.66663C13.2214 8.86663 13.3048 8.00829 13.4714 7.09163C13.6381 6.17496 13.9381 5.13329 14.3714 3.96663C11.1048 4.86663 8.39642 6.69163 6.24642 9.44163C4.09642 12.1916 3.02142 15.2666 3.02142 18.6666C3.02142 22.8333 4.47976 26.375 7.39642 29.2916C10.3131 32.2083 13.8548 33.6666 18.0214 33.6666Z" fill="white"/>
</svg>
