<svg width="164" height="140" viewBox="0 0 164 140" fill="none" xmlns="http://www.w3.org/2000/svg">
<path d="M139.4 0H24.6C11.0138 0 0 9.40202 0 21V119C0 130.598 11.0138 140 24.6 140H139.4C152.986 140 164 130.598 164 119V21C164 9.40202 152.986 0 139.4 0Z" fill="black"/>
<path d="M49.6484 55.2347H31.0703C30.8623 55.2246 30.6562 55.2725 30.4829 55.3712C30.3096 55.4698 30.1785 55.6138 30.1094 55.7816L21.4609 94.3363C21.4609 95.1566 22.4219 95.1566 22.4219 95.1566H32.0313C32.9922 95.1566 32.9922 94.6097 32.9922 94.6097L35.2344 85.0394H43.8828C57.3359 85.0394 64.0625 77.3832 65.6641 70.5472C67.2656 63.7113 65.9844 55.2347 49.6484 55.2347ZM53.8125 70.0003C52.5313 75.1957 48.3672 77.3832 42.6016 77.3832H36.8359L40.3594 62.891H46.125C54.7734 62.891 54.4531 65.6253 53.8125 70.0003Z" fill="black" stroke="white" stroke-width="1.80992"/>
<path d="M88.0859 85.0391C86.8047 85.0391 87.125 83.9453 87.125 83.9453L90.9688 67.2656C90.9688 65.0781 92.8906 62.8906 85.2031 63.1641H79.4375L74.6328 84.4922C74.6328 84.4922 74.6328 85.3125 73.3516 85.3125H64.0625C63.1016 85.3125 63.1016 84.4922 63.1016 84.4922L72.0703 45.9375C72.0703 45.9375 72.0703 45.3906 73.3516 45.3906H82.9609C83.9219 45.3906 83.6016 46.2109 83.6016 46.2109L81.3594 55.5078H89.6875C101.219 55.5078 104.102 60.1562 103.141 65.625L98.9766 84.4922C98.9766 84.4922 98.9766 85.3125 97.375 85.3125L88.0859 85.0391Z" fill="black" stroke="white" stroke-width="1.80992"/>
<path d="M126.203 55.2347H107.625C107.417 55.2246 107.211 55.2725 107.038 55.3712C106.864 55.4698 106.733 55.6138 106.664 55.7816L98.0156 94.3363C98.0156 95.1566 98.9766 95.1566 98.9766 95.1566H108.586C109.547 95.1566 109.547 94.6097 109.547 94.6097L111.789 85.0394H120.438C133.891 85.0394 140.617 77.3832 142.219 70.5472C143.82 63.7113 142.539 55.2347 126.203 55.2347ZM130.367 70.0003C129.086 75.1957 124.922 77.3832 119.156 77.3832H113.391L116.914 62.891H122.68C131.328 62.891 131.008 65.6253 130.367 70.0003Z" fill="black" stroke="white" stroke-width="1.80992"/>
</svg>
