<svg width="164" height="140" viewBox="0 0 164 140" fill="none" xmlns="http://www.w3.org/2000/svg">
<path d="M82 24C60.106 24 46.494 34.1967 41 54.6667C49.2 44.47 58.794 40.6367 69.7 43.1667C75.932 44.6233 80.442 48.84 85.362 53.5167C93.398 61.1833 102.5 70 123 70C144.894 70 158.506 59.8033 164 39.3333C155.8 49.53 146.206 53.3633 135.3 50.8333C129.068 49.3767 124.64 45.16 119.638 40.4833C111.602 32.8167 102.5 24 82 24ZM41 70C19.106 70 5.494 80.1967 0 100.667C8.2 90.47 17.794 86.6367 28.7 89.1667C34.932 90.6233 39.36 94.84 44.362 99.5167C52.398 107.183 61.5 116 82 116C103.894 116 117.506 105.803 123 85.3333C114.8 95.53 105.206 99.3633 94.3 96.8333C88.068 95.3767 83.64 91.16 78.638 86.4833C70.602 78.8167 61.5 70 41 70Z" fill="black"/>
</svg>
