<svg width="172" height="148" viewBox="0 0 172 148" fill="none" xmlns="http://www.w3.org/2000/svg">
<g filter="url(#filter0_d_379_3207)">
<path d="M21.7556 45.5564L55.3161 124.024C31.8403 114.315 15.6718 93.7661 15.6718 70C15.6718 61.2782 17.854 53.0363 21.7556 45.5564ZM133.481 66.9798C133.481 59.5565 130.373 54.4194 127.694 50.4113C124.123 45.4718 120.784 41.2661 120.784 36.3266C120.784 30.7944 125.677 25.6573 132.588 25.6573C132.885 25.6573 133.183 25.6855 133.514 25.7137C120.982 15.9194 104.318 9.93548 86 9.93548C61.4331 9.93548 39.8089 20.6895 27.2113 37.004C28.8645 37.0605 30.4185 37.0887 31.7411 37.0887C39.0815 37.0887 50.4887 36.3266 50.4887 36.3266C54.2911 36.129 54.721 40.8992 50.9516 41.2661C50.9516 41.2661 47.1492 41.6331 42.9169 41.8306L68.5419 106.863L83.95 67.4597L73.0056 41.8306C69.2032 41.6331 65.6323 41.2661 65.6323 41.2661C61.8298 41.0685 62.2927 36.129 66.0621 36.3266C66.0621 36.3266 77.6677 37.0887 84.5782 37.0887C91.9186 37.0887 103.326 36.3266 103.326 36.3266C107.128 36.129 107.558 40.8992 103.789 41.2661C103.789 41.2661 99.9863 41.6331 95.754 41.8306L121.181 106.383L128.19 86.371C131.166 78.0726 133.481 72.1169 133.481 66.9798ZM87.2234 75.25L66.1282 127.609C72.4435 129.19 79.0895 130.065 86 130.065C94.2 130.065 102.036 128.851 109.344 126.649C109.145 126.395 108.98 126.113 108.848 125.831L87.2234 75.25ZM147.731 41.1814C148.029 43.1008 148.194 45.1331 148.194 47.3629C148.194 53.4597 146.872 60.2903 142.838 68.871L121.346 121.907C142.276 111.492 156.328 92.1573 156.328 70C156.328 59.5565 153.22 49.7339 147.731 41.1814ZM168 70C168 108.613 131.199 140 86 140C40.7677 140 4 108.585 4 70C4 31.3871 40.7677 0 86 0C131.199 0 168 31.3871 168 70ZM164.231 70C164.231 33.1653 129.116 3.21774 86 3.21774C42.8508 3.21774 7.76935 33.1653 7.76935 70C7.76935 106.835 42.8839 136.782 86 136.782C129.149 136.782 164.231 106.835 164.231 70Z" fill="white"/>
</g>
<defs>
<filter id="filter0_d_379_3207" x="0" y="0" width="172" height="148" filterUnits="userSpaceOnUse" color-interpolation-filters="sRGB">
<feFlood flood-opacity="0" result="BackgroundImageFix"/>
<feColorMatrix in="SourceAlpha" type="matrix" values="0 0 0 0 0 0 0 0 0 0 0 0 0 0 0 0 0 0 127 0" result="hardAlpha"/>
<feOffset dy="4"/>
<feGaussianBlur stdDeviation="2"/>
<feComposite in2="hardAlpha" operator="out"/>
<feColorMatrix type="matrix" values="0 0 0 0 0 0 0 0 0 0 0 0 0 0 0 0 0 0 0.25 0"/>
<feBlend mode="normal" in2="BackgroundImageFix" result="effect1_dropShadow_379_3207"/>
<feBlend mode="normal" in="SourceGraphic" in2="effect1_dropShadow_379_3207" result="shape"/>
</filter>
</defs>
</svg>
